[IMG]http://img42.imageshack.us/img42/39/collectc.jpg[/IMG]
[code]
The.Collection.2012.R5.DVDRIP.XVID.AC3.5.1-26K
 
http://www.imdb.com/title/tt1748227/

Plot:
A man who escapes from the vicious grips of the serial killer known as "The Collector" is blackmailed to rescue an 

innocent girl from the killer's booby-trapped warehouse.

Sources - Audio-RUSSIAN DVD9....Thanks :P
          VIDEO-RUSSIAN DVD9.....Thanks :P
          Subs-N/A..:P
Video
ID                                       : 0
Format                                   : MPEG-4 Visual
Format profile                           : Simple@L5
Format settings, BVOP                    : No
Format settings, QPel                    : No
Format settings, GMC                     : No warppoints
Format settings, Matrix                  : Default (H.263)
Codec ID                                 : XVID
Codec ID/Hint                            : XviD
Duration                                 : 1h 18mn
Bit rate                                 : 2 444 Kbps
Width                                    : 720 pixels
Height                                   : 304 pixels
Display aspect ratio                     : 2.35:1
Frame rate                               : 25.000 fps
Color space                              : YUV
Chroma subsampling                       : 4:2:0
Bit depth                                : 8 bits
Scan type                                : Progressive
Compression mode                         : Lossy
Bits/(Pixel*Frame)                       : 0.447
Stream size                              : 1.34 GiB (86%)
Writing library                          : XviD 64

Audio
ID                                       : 1
Format                                   : AC-3
Format/Info                              : Audio Coding 3
Mode extension                           : CM (complete main)
Format settings, Endianness              : Big
Codec ID                                 : 2000
Duration                                 : 1h 18mn
Bit rate mode                            : Constant
Bit rate                                 : 384 Kbps
Channel(s)                               : 6 channels
Channel positions                        : Front: L C R, Side: L R, LFE
Sampling rate                            : 48.0 KHz
Bit depth                                : 16 bits
Compression mode                         : Lossy
Delay relative to video                  : 1s 600ms
Stream size                              : 215 MiB (14%)
Alignment                                : Split accross interleaves
Interleave, duration                     : 5459 ms (136.48 video frames)

Notes -
CROPPED,TWEAKED VIDEO THEN  MUXED OVER 6 CHANNEL ENG AUDIO... HERE IS THE OUTCOME ENJOY...

[/code]

Screens:
[IMG]http://i.imgur.com/bCv376v.png[/IMG]
[IMG]http://i.imgur.com/PvTf2Wb.png[/IMG]
[IMG]http://i.imgur.com/E0EKt1R.png[/IMG]
[IMG]http://i.imgur.com/k79wQ2R.png[/IMG]
[IMG]http://i.imgur.com/iUqmFQ2.png[/IMG]
[IMG]http://i.imgur.com/tLMkpwZ.png[/IMG]

Greetz:
Silent Hill-HD|CM8|RX|VISION|HDSCENE|xTriLL|DTRG|CRYS|BIDA|RX|REFILL|INSPiRAL|AXED|HOPE|Anonymous|NOIR|Blackjesus|Gabroo 

Punjab Deh|UNiQUE|DQ1|RESiSTANCE|HS||LEGION|STN|BOBBYBLUE|LIFT

To all the people who have helped me  you know who you are

Anything to offer email us @: 26k@hushmail.me
&lt;&lt;bullying has to be stopped now!&gt;&gt;